<svg width="24" height="24" viewBox="0 0 30 30" fill="none" class="icon-play-pause active" id="icon-play">
          <path d="M9.12043 2.37256L8.35995 22.142C7.33658 21.6168 6.05265 21.3896 4.70548 21.5808C1.80065 21.9922 -0.291025 24.1835 0.0337248 26.4745C0.358525 28.7657 2.97658 30.2891 5.88128 29.8776C8.45925 29.5123 10.3944 27.745 10.5702 25.7507L10.5708 25.7519C10.5712 25.7473 10.5714 25.7406 10.5718 25.7355C10.5761 25.6848 10.5786 25.6335 10.5805 25.5825C10.6886 23.5233 11.3508 7.88184 11.3508 7.88184L27.6612 6.20136L26.9246 20.2883C25.8779 19.7058 24.5326 19.4462 23.118 19.6467C20.2132 20.0585 18.1216 22.2493 18.4464 24.5407C18.771 26.8317 21.3891 28.3554 24.2939 27.9434C26.9267 27.5707 28.8883 25.7354 28.9913 23.6891L28.9925 23.6878C29.0477 22.7683 29.968 1.53431 30.0005 0.783936L9.12043 2.37256Z" fill="white"></path>
        </svg>